<mxfile host="app.diagrams.net" modified="2023-11-13T14:49:19.463Z" agent="Mozilla/5.0 (Windows NT 10.0; Win64; x64) AppleWebKit/537.36 (KHTML, like Gecko) Chrome/119.0.0.0 Safari/537.36" version="21.3.2" etag="wETyQiK4xs9h2OHYgNF3" type="github">
  <diagram name="PÃ¡gina-1" id="yqpX-mV5Hey09Wsk0YVw">
    <mxGraphModel>
      <root>
        <mxCell id="0" />
        <mxCell id="1" parent="0" />
      </root>
    </mxGraphModel>
  </diagram>
</mxfile>
